<svg width="16" height="16" viewBox="0 0 16 16" fill="none" xmlns="http://www.w3.org/2000/svg">
<path d="M8.96434 10.3488L8.96434 10.3488C8.98791 10.361 9.01258 10.3737 9.03787 10.3866C9.05673 10.3963 9.07593 10.4061 9.09528 10.4161L9.95215 9.56319C10.2744 9.24142 10.6602 9.06429 11.0701 9.06429C11.4832 9.06429 11.8666 9.24455 12.1774 9.56728L13.8003 11.1937C13.8005 11.1938 13.8006 11.194 13.8007 11.1941C14.1237 11.5136 14.3006 11.9021 14.3006 12.3139C14.3006 12.7219 14.1274 13.1124 13.812 13.4401C13.6827 13.5752 13.5508 13.7039 13.4229 13.8257M8.96434 10.3488L13.3191 13.7174M8.96434 10.3488L8.96221 10.3477M8.96434 10.3488L8.96221 10.3477M13.4229 13.8257C13.4228 13.8258 13.4226 13.8259 13.4225 13.826L13.3191 13.7174M13.4229 13.8257C13.423 13.8255 13.4232 13.8254 13.4233 13.8252L13.3191 13.7174M13.4229 13.8257C13.4096 13.8385 13.3964 13.8512 13.3833 13.8639C13.2127 14.0287 13.0576 14.1784 12.922 14.3415M13.3191 13.7174C13.3052 13.7308 13.2915 13.7441 13.2778 13.7573C13.1064 13.9227 12.9437 14.0799 12.8012 14.2522M12.922 14.3415C12.9264 14.3354 12.931 14.328 12.9353 14.3194L12.8012 14.2522M12.922 14.3415C12.9198 14.3447 12.9176 14.3476 12.9155 14.3501M12.922 14.3415C12.9203 14.3436 12.9186 14.3457 12.9168 14.3478L12.9167 14.3477M12.8012 14.2522L12.8647 14.3047L12.9161 14.3471M12.8012 14.2522L12.9161 14.3471M12.9161 14.3471C12.9125 14.3527 12.9091 14.357 12.9065 14.36L12.9018 14.3652M12.9161 14.3471L12.9013 14.3657C12.9006 14.3665 12.9011 14.3659 12.9018 14.3652M12.9161 14.3471C12.9185 14.3434 12.9211 14.339 12.9235 14.3342L12.9167 14.3477M12.9161 14.3471L12.9167 14.3477M12.9018 14.3652L12.9051 14.3618C12.9071 14.3598 12.9098 14.3569 12.913 14.3532C12.9138 14.3522 12.9147 14.3512 12.9155 14.3501M12.9018 14.3652L12.9155 14.3501M12.9167 14.3477L12.9155 14.3501M8.96221 10.3477C8.85437 10.2939 8.7606 10.2469 8.68192 10.1982C7.82216 9.65281 7.03833 8.94076 6.28386 8.01524C5.95039 7.59427 5.72027 7.23834 5.55026 6.88621C5.74218 6.70675 5.92327 6.52324 6.09753 6.34666C6.11872 6.32518 6.13982 6.3038 6.16082 6.28255C6.20259 6.24083 6.24428 6.19846 6.28543 6.15664L6.28568 6.15638C6.32719 6.11419 6.36815 6.07256 6.40903 6.03175C6.74307 5.69819 6.9191 5.30547 6.9191 4.90324C6.9191 4.50102 6.74307 4.1083 6.40903 3.77474L5.6012 2.96808C5.50915 2.87617 5.4162 2.78333 5.32937 2.69085L5.32938 2.69083M8.96221 10.3477L5.32938 2.69083M5.32938 2.69083L5.32773 2.68913M5.32938 2.69083L5.32773 2.68913M5.32773 2.68913C5.15039 2.50615 4.96218 2.31516 4.76725 2.13537C4.4562 1.8288 4.07699 1.65957 3.6724 1.65957C3.26741 1.65957 2.88227 1.82912 2.56251 2.13564L2.56249 2.13562M5.32773 2.68913L2.56249 2.13562M2.56249 2.13562L2.56032 2.13778M2.56249 2.13562L2.56032 2.13778M2.56032 2.13778L2.55736 2.14074L2.5544 2.14369L2.5544 2.14369M2.56032 2.13778L2.5544 2.14369M2.5544 2.14369L2.55394 2.14416M2.5544 2.14369L2.55394 2.14416M2.55394 2.14416L1.54831 3.15719C1.54823 3.15727 1.54815 3.15734 1.54808 3.15742C1.14455 3.56047 0.913209 4.05421 0.862761 4.62408L0.862758 4.62408M2.55394 2.14416L0.862758 4.62408M0.862758 4.62408L0.862682 4.62501M0.862758 4.62408L0.862682 4.62501M0.862682 4.62501C0.788853 5.52195 1.05329 6.35137 1.25032 6.88198L0.862682 4.62501ZM13.007 12.6953C13.0074 12.6947 13.0079 12.6941 13.0083 12.6935C13.0157 12.6838 13.0237 12.6758 13.0316 12.6692C13.1591 12.5335 13.2059 12.4166 13.2057 12.3172C13.2054 12.216 13.1563 12.099 13.0212 11.9655L13.0207 11.965L11.3903 10.3369L11.3903 10.3369L11.3843 10.331L11.3795 10.3261L11.3796 10.326C11.2989 10.2376 11.1853 10.1591 11.0642 10.1591C10.94 10.1591 10.8173 10.2431 10.7234 10.3369L9.71138 11.3474L9.70983 11.349C9.65477 11.404 9.46343 11.5952 9.15561 11.5952C9.03174 11.5952 8.91425 11.5647 8.79566 11.5055L8.86266 11.3713L8.79565 11.5055C8.78222 11.4988 8.77015 11.4911 8.76549 11.4882C8.7613 11.4856 8.75964 11.4846 8.7593 11.4844C8.75925 11.4844 8.75923 11.4843 8.75923 11.4843L8.7478 11.4786L8.74813 11.4781C8.66932 11.4293 8.57534 11.3822 8.4672 11.3282L8.4645 11.3269C8.34775 11.2686 8.2178 11.2037 8.09006 11.1228C8.09004 11.1228 8.09001 11.1228 8.08998 11.1228L8.17023 10.996L13.007 12.6953ZM13.007 12.6953C12.9192 12.7889 12.8297 12.8757 12.7326 12.97C12.7103 12.9916 12.6877 13.0136 12.6646 13.0361C12.6644 13.0364 12.6642 13.0366 12.6639 13.0368L12.7687 13.1442C12.5763 13.3274 12.381 13.5194 12.1976 13.7351M13.007 12.6953L11.0849 14.2049C11.5466 14.2049 11.8987 14.0542 12.1976 13.7351M12.1976 13.7351L12.0881 13.6326C12.0873 13.6334 12.0865 13.6343 12.0857 13.6351C12.0849 13.6361 12.0841 13.637 12.0833 13.6379L12.1976 13.7351ZM4.11923 2.82307L4.11035 2.8142C4.01566 2.71965 3.86475 2.60737 3.67832 2.60737C3.52741 2.60737 3.37354 2.68124 3.22854 2.81716M4.11923 2.82307L3.22854 2.81716M4.11923 2.82307C4.29973 2.99149 4.47136 3.16582 4.65187 3.35197L4.11923 2.82307ZM3.22854 2.81716L3.33113 2.92659C3.33168 2.92607 3.33224 2.92555 3.3328 2.92503L3.33453 2.9233L3.22854 2.81716ZM13.2252 12.6711C13.1982 12.7079 13.167 12.7448 13.1316 12.7817L13.1297 12.7798V12.635C13.1425 12.6352 13.1569 12.637 13.1723 12.6418C13.1898 12.6473 13.2084 12.6567 13.2252 12.6711ZM5.43108 8.70922L5.43361 8.71175L5.43656 8.7147L5.54255 8.60856L5.51116 8.63408L5.42616 8.70318C5.4278 8.70519 5.42944 8.70721 5.43108 8.70922ZM4.62281 6.24495C4.6199 6.24786 4.61702 6.25077 4.61417 6.25368C4.6076 6.26184 4.60069 6.27192 4.59468 6.28393L4.7288 6.35109L4.62281 6.24495ZM4.64182 6.22617L4.64055 6.22724L4.63761 6.23017C4.6405 6.22729 4.64271 6.22544 4.6429 6.22529L4.64273 6.22543L4.64182 6.22617ZM1.96061 4.71484C1.96062 4.71476 1.96062 4.71467 1.96063 4.71459L1.81113 4.70232L1.96059 4.71511C1.96059 4.71502 1.9606 4.71493 1.96061 4.71484ZM8.70559 13.3753C7.0505 12.5752 5.59686 11.4392 4.38825 9.9987L8.70559 13.3753Z" fill="#038EE9" stroke="#038EE9" stroke-width="0.3"/>
<path d="M12.1481 7.90088L12.1481 7.90098L12.1535 7.9001C12.4564 7.85105 12.6545 7.56528 12.606 7.26704L12.606 7.26704L12.6058 7.26586C12.4407 6.29821 11.9821 5.41609 11.2827 4.71769C10.5832 4.01929 9.69989 3.56134 8.73097 3.39653L8.73097 3.39652L8.72979 3.39633C8.43062 3.34789 8.14949 3.5461 8.09653 3.84309C8.04393 4.13799 8.23778 4.42881 8.54231 4.47838C9.28607 4.60318 9.962 4.95459 10.5025 5.49434C11.0428 6.03382 11.3921 6.70877 11.52 7.45209C11.5652 7.72171 11.7985 7.90794 12.0614 7.90794C12.0928 7.90794 12.1212 7.90431 12.1413 7.90174C12.1437 7.90144 12.1459 7.90115 12.1481 7.90088Z" fill="#038EE9" stroke="#038EE9" stroke-width="0.3"/>
<path d="M14.0588 7.33061C14.104 7.60033 14.3373 7.78665 14.6003 7.78665C14.6317 7.78665 14.6601 7.78301 14.6802 7.78045C14.6825 7.78014 14.6848 7.77985 14.687 7.77958L14.687 7.77963L14.6907 7.77907C14.9903 7.73399 15.1943 7.44845 15.1417 7.15045C14.8731 5.57714 14.1304 4.14541 12.99 3.00671C11.8498 1.86812 10.4162 1.12658 8.84094 0.85829C8.54075 0.805254 8.26142 1.01066 8.20896 1.30477L8.20895 1.30477L8.20857 1.30706C8.15987 1.60697 8.35954 1.88724 8.65918 1.9398L8.65918 1.9398L8.66006 1.93995C10.0079 2.16812 11.2374 2.80631 12.216 3.78056C13.1942 4.75742 13.8303 5.98484 14.0588 7.33061ZM14.0588 7.33061C14.0588 7.33054 14.0588 7.33047 14.0588 7.3304L14.2068 7.30571L14.0589 7.33082C14.0589 7.33075 14.0589 7.33068 14.0588 7.33061Z" fill="#038EE9" stroke="#038EE9" stroke-width="0.3"/>
</svg>
