<svg width="126" height="61" viewBox="0 0 126 61" fill="none" xmlns="http://www.w3.org/2000/svg">
<path fill-rule="evenodd" clip-rule="evenodd" d="M17.5555 37.6485L0 24.4715H32.8211L27.4781 9.7886L22.6293 19.8369H18.8129L27.4781 0L37.0191 24.4715H126L122.947 28.2363H10.7414L22.8984 37.6485H17.5555ZM42.153 45.6523C43.8077 46.2912 44.5334 47.2682 44.3299 48.5831C44.1819 49.4778 43.7337 50.1672 42.9849 50.6512C42.2453 51.1351 41.3208 51.3679 40.2113 51.3496C39.0191 51.3315 38.1037 51.0162 37.4658 50.4047C36.8279 49.7928 36.546 48.9211 36.62 47.7888L33.1947 47.7751C33.1487 48.9895 33.412 50.076 33.9853 51.0346C34.5583 51.9841 35.3811 52.7283 36.4537 53.267C37.5351 53.8057 38.7371 54.0796 40.0589 54.0886C41.4549 54.107 42.7307 53.8879 43.8861 53.4313C45.051 52.9748 45.9617 52.3312 46.6181 51.5002C47.2743 50.6602 47.6488 49.6789 47.7411 48.5557C47.8428 47.177 47.473 45.9856 46.632 44.981C45.7906 43.9676 44.3114 43.0865 42.1946 42.3377L41.1544 41.968C39.398 41.3017 38.6121 40.3885 38.797 39.2289C38.9264 38.3432 39.3608 37.6401 40.1004 37.1197C40.8492 36.5994 41.7646 36.3482 42.8463 36.3666C43.9186 36.394 44.7183 36.6952 45.245 37.2704C45.7815 37.8455 46.0171 38.6538 45.9525 39.6945L49.3637 39.7082C49.4005 38.5305 49.1602 37.4848 48.6426 36.572C48.1248 35.6498 47.376 34.9331 46.396 34.4217C45.4161 33.9014 44.2975 33.6272 43.0403 33.5998C41.7369 33.5724 40.5074 33.7918 39.3517 34.2574C38.1963 34.723 37.2626 35.3896 36.5507 36.257C35.8479 37.1151 35.4599 38.1104 35.3858 39.2426C35.3027 40.5482 35.7002 41.6941 36.5784 42.6801C37.4566 43.6664 38.9403 44.52 41.0297 45.2415L42.153 45.6523ZM61.0256 36.6678H67.1271L67.6264 33.874H52.0676L51.5683 36.6678H57.6283L54.6053 53.8148H58.0167L61.0256 36.6678ZM76.9863 49.1719H69.4288L67.0163 53.8148H63.3276L74.2269 33.874H77.3054L81.2158 53.8148H77.777L76.9863 49.1719ZM70.8712 46.3781H76.5289L75.1558 38.1331L70.8712 46.3781ZM88.3988 46.1316H92.2537L94.833 53.8148H98.4662L98.48 53.6094L95.4989 45.3647C96.8855 44.826 97.9625 44.0862 98.7298 43.146C99.4968 42.1964 99.9315 41.0779 100.033 39.7904C100.19 37.937 99.6865 36.4898 98.5216 35.4488C97.3567 34.408 95.679 33.8877 93.4879 33.8877L87.123 33.874L83.6149 53.8148H87.0398L88.3988 46.1316ZM92.1844 43.3788L88.8703 43.3514L90.049 36.6678L93.71 36.6815C94.7454 36.718 95.5171 37.0149 96.0255 37.5716C96.534 38.1194 96.7189 38.9093 96.5803 39.941C96.4417 41.0001 95.9701 41.8401 95.1659 42.461C94.3709 43.0728 93.377 43.3788 92.1844 43.3788ZM108.215 45.2278L105.441 47.7341L104.373 53.8148H100.948L104.457 33.874H107.882L106.259 43.0364L108.381 40.8588L115.342 33.874H119.724L110.739 42.8721L116.41 53.8148H112.583L108.215 45.2278ZM11.0463 42.4949L4.9483 61L27.4347 45.8938V41.5802L11.0463 52.8388L14.4764 42.4949H11.0463Z" fill="#038EE9"/>
</svg>
