<svg width="31" height="31" viewBox="0 0 31 31" fill="none" xmlns="http://www.w3.org/2000/svg">
<g clip-path="url(#clip0)">
<path d="M17.95 20.3799C17.192 19.8511 16.382 19.4202 15.5348 19.091C16.6618 18.0666 17.4094 16.6317 17.5395 15.0253C19.2485 13.3601 21.4887 12.4471 23.8903 12.4471C25.7651 12.4471 27.5652 13.0117 29.0963 14.0795C29.645 14.4622 30.3995 14.3279 30.7822 13.7791C31.1646 13.2307 31.0303 12.476 30.4818 12.0935C29.7238 11.5647 28.9135 11.134 28.0663 10.8045C29.3099 9.67426 30.0918 8.04446 30.0918 6.23562C30.0918 2.83057 27.3218 0.0605469 23.9167 0.0605469C20.5119 0.0605469 17.7419 2.83057 17.7419 6.23562C17.7419 8.03713 18.5174 9.66101 19.7525 10.7908C19.5834 10.8559 19.4152 10.9247 19.2487 10.998C18.4909 11.3315 17.7786 11.7416 17.1161 12.2231C16.2025 9.95334 13.9781 8.34696 11.3852 8.34696C7.98037 8.34696 5.21012 11.117 5.21012 14.5218C5.21012 16.3183 5.98138 17.9377 7.20982 19.0671C3.92539 20.2976 1.26227 22.9407 0.178101 26.3114C-0.181396 27.4292 0.00899537 28.6146 0.700554 29.5637C1.39211 30.5126 2.46209 31.0568 3.63613 31.0568H14.1701C14.8387 31.0568 15.3808 30.5147 15.3808 29.8458C15.3808 29.1772 14.8387 28.6351 14.1701 28.6351H3.63613C3.24471 28.6351 2.88805 28.4537 2.65745 28.1373C2.42685 27.8208 2.36347 27.4256 2.48314 27.0529C3.67989 23.3321 7.32973 20.7335 11.3587 20.7335C13.2333 20.7335 15.0336 21.2981 16.5648 22.3659C17.1133 22.7486 17.868 22.614 18.2506 22.0656C18.6331 21.5171 18.4987 20.7624 17.95 20.3799ZM23.9167 2.48219C25.9865 2.48219 27.6702 4.16591 27.6702 6.23562C27.6702 8.30509 25.9865 9.98906 23.9167 9.98906C21.8473 9.98906 20.1633 8.30509 20.1633 6.23562C20.1633 4.16591 21.8473 2.48219 23.9167 2.48219ZM11.3852 10.7684C13.4549 10.7684 15.1386 12.4523 15.1386 14.5218C15.1386 16.5915 13.4549 18.2752 11.3852 18.2752C9.31548 18.2752 7.63176 16.5915 7.63176 14.5218C7.63176 12.4523 9.31548 10.7684 11.3852 10.7684ZM31 25.3055C31 25.9741 30.4579 26.5162 29.7891 26.5162H26.4595V29.8458C26.4595 30.5147 25.9174 31.0568 25.2488 31.0568C24.5799 31.0568 24.0378 30.5147 24.0378 29.8458V26.5162H20.7082C20.0396 26.5162 19.4975 25.9741 19.4975 25.3055C19.4975 24.6367 20.0396 24.0946 20.7082 24.0946H24.0378V20.765C24.0378 20.0964 24.5799 19.5543 25.2488 19.5543C25.9174 19.5543 26.4595 20.0964 26.4595 20.765V24.0946H29.7891C30.4579 24.0946 31 24.6367 31 25.3055Z" fill="white"/>
</g>
<defs>
<clipPath id="clip0">
<rect width="31" height="31" fill="white"/>
</clipPath>
</defs>
</svg>
