<svg width="24" height="24" viewBox="0 0 24 24" fill="none" xmlns="http://www.w3.org/2000/svg">
<path d="M7.23 23.4498H1.5V15.8198H7.23V23.4498ZM3.41 21.5498H5.32V17.7298H3.41V21.5498Z" fill="white"/>
<path d="M22.5 23.4502H16.77V8.18018H22.5V23.4502ZM18.68 21.5502H20.59V10.0902H18.68V21.5502Z" fill="white"/>
<path d="M14.86 23.45H9.14001V12H14.86V23.45ZM11.05 21.55H13V13.91H11.1L11.05 21.55Z" fill="white"/>
<path d="M0.549988 21.55H23.46V23.46H0.549988V21.55Z" fill="white"/>
<path d="M11.05 10.0901C10.1066 10.0901 9.18438 9.8103 8.39996 9.28616C7.61554 8.76203 7.00416 8.01706 6.64313 7.14545C6.2821 6.27385 6.18763 5.31476 6.37169 4.38947C6.55574 3.46418 7.01004 2.61425 7.67713 1.94715C8.34423 1.28006 9.19416 0.825757 10.1195 0.641705C11.0447 0.457654 12.0038 0.552116 12.8754 0.913146C13.747 1.27418 14.492 1.88556 15.0161 2.66998C15.5403 3.4544 15.82 4.37663 15.82 5.32005C15.8174 6.58432 15.314 7.79606 14.42 8.69003C13.526 9.58401 12.3143 10.0874 11.05 10.0901ZM11.05 2.45005C10.482 2.44807 9.92611 2.61471 9.45283 2.92886C8.97955 3.24302 8.61014 3.69056 8.39138 4.2148C8.17262 4.73905 8.11436 5.31642 8.22396 5.87381C8.33357 6.43119 8.60612 6.94351 9.0071 7.34589C9.40807 7.74826 9.91944 8.0226 10.4764 8.13415C11.0334 8.2457 11.611 8.18946 12.136 7.97253C12.661 7.7556 13.1098 7.38776 13.4256 6.91557C13.7415 6.44339 13.91 5.88811 13.91 5.32005C13.9074 4.56141 13.6056 3.83445 13.0701 3.29707C12.5346 2.7597 11.8087 2.45532 11.05 2.45005Z" fill="white"/>
<path d="M3.68597 11.3279L7.50435 7.50951L8.85493 8.86008L5.03655 12.6785L3.68597 11.3279Z" fill="white"/>
</svg>
