<svg width="24" height="24" viewBox="0 0 24 24" fill="none" xmlns="http://www.w3.org/2000/svg">
<path d="M12 0C5.36792 0 0 5.367 0 12C0 18.6321 5.367 24 12 24C18.6321 24 24 18.633 24 12C24 5.36792 18.633 0 12 0ZM18.0938 20.0874V13.875C18.0938 13.3572 17.6741 12.9375 17.1562 12.9375C16.6384 12.9375 16.2188 13.3572 16.2188 13.875V21.2093C15.1901 21.6812 14.0841 21.9772 12.9375 22.0818V15.2812C12.9375 14.7634 12.5178 14.3438 12 14.3438C11.4822 14.3438 11.0625 14.7634 11.0625 15.2812V22.0818C9.91589 21.9772 8.80994 21.6812 7.78125 21.2093V15.2812C7.78125 14.7634 7.36157 14.3438 6.84375 14.3438C6.32593 14.3438 5.90625 14.7634 5.90625 15.2812V20.0874C4.35168 18.9111 3.12451 17.2905 2.4494 15.3765L4.88837 12.9375H12C12.2487 12.9375 12.4871 12.8388 12.663 12.6628L16.2188 9.10712V10.5938C16.2188 11.1116 16.6384 11.5312 17.1562 11.5312C17.6741 11.5312 18.0938 11.1116 18.0938 10.5938V6.84375C18.0938 6.32867 17.6719 5.90625 17.1562 5.90625H13.4062C12.8884 5.90625 12.4688 6.32593 12.4688 6.84375C12.4688 7.36157 12.8884 7.78125 13.4062 7.78125H14.8929L11.6116 11.0625H4.5C4.25134 11.0625 4.01294 11.1612 3.83698 11.3372L1.94824 13.2259C1.8999 12.8221 1.875 12.4129 1.875 12C1.875 6.40411 6.40338 1.875 12 1.875C17.5959 1.875 22.125 6.40338 22.125 12C22.125 15.2618 20.5942 18.1952 18.0938 20.0874Z" fill="white"/>
</svg>
