<svg width="24" height="24" viewBox="0 0 24 24" fill="none" xmlns="http://www.w3.org/2000/svg">
<path d="M18.7855 15.8375C20.3892 14.1544 21.375 11.8777 21.375 9.37498C21.375 4.20562 17.1694 0 12 0C6.83057 0 2.625 4.20562 2.625 9.37498C2.625 11.8777 3.61078 14.1544 5.21442 15.8375L3.30108 20.5778C3.17203 20.8975 3.22889 21.2623 3.4492 21.5276C3.66951 21.7929 4.0177 21.916 4.35567 21.8476L7.05655 21.3032L8.59789 23.5869C8.79008 23.8716 9.12538 24.0315 9.47328 23.9947C9.818 23.9584 10.1146 23.7348 10.2443 23.4133L12 19.0631L13.7556 23.4133C13.8854 23.7348 14.1819 23.9584 14.5267 23.9948C14.867 24.0308 15.2057 23.8778 15.4021 23.5869L16.9434 21.3032L19.6443 21.8477C19.9824 21.9159 20.3305 21.7929 20.5508 21.5276C20.7711 21.2624 20.828 20.8976 20.6989 20.5778L18.7855 15.8375ZM9.16555 21.0764L8.26105 19.7362C8.04927 19.4225 7.66968 19.2667 7.29871 19.3417L5.69118 19.6657L6.7198 17.1174C7.74491 17.8187 8.91561 18.3217 10.1765 18.5713L9.16555 21.0764ZM12 16.875C7.86449 16.875 4.5 13.5105 4.5 9.37498C4.5 5.23949 7.86449 1.875 12 1.875C16.1355 1.875 19.5 5.23949 19.5 9.37498C19.5 13.5105 16.1355 16.875 12 16.875ZM16.7013 19.3417C16.3301 19.2669 15.9506 19.4226 15.7389 19.7363L14.8344 21.0764L13.8235 18.5714C15.0843 18.3218 16.2551 17.8187 17.2802 17.1175L18.3088 19.6658L16.7013 19.3417ZM17.3497 7.63677C17.2394 7.29739 16.946 7.05003 16.5929 6.9987L14.0002 6.62197L12.8407 4.2726C12.6828 3.95259 12.3568 3.74999 12 3.74999C11.6431 3.74999 11.3172 3.95259 11.1593 4.2726L9.99978 6.62197L7.40708 6.9987C7.05393 7.05003 6.76059 7.29739 6.65029 7.63677C6.53999 7.97614 6.63196 8.3487 6.88752 8.5978L8.7636 10.4265L8.32072 13.0088C8.26039 13.3605 8.405 13.7159 8.69371 13.9257C8.98241 14.1355 9.36519 14.1632 9.68103 13.997L12 12.7779L14.3189 13.9971C14.6379 14.1648 15.0204 14.1334 15.3063 13.9257C15.595 13.716 15.7395 13.3605 15.6792 13.0088L15.2364 10.4266L17.1124 8.59784C17.368 8.3487 17.4599 7.97614 17.3497 7.63677ZM13.5746 9.4279C13.3537 9.64329 13.2529 9.95361 13.305 10.2577L13.5101 11.4535L12.4362 10.8889C12.1632 10.7454 11.8369 10.7454 11.5638 10.8889L10.4899 11.4535L10.695 10.2577C10.7471 9.95361 10.6463 9.64329 10.4254 9.4279L9.55658 8.58106L10.7572 8.40659C11.0625 8.36225 11.3265 8.17044 11.4631 7.89373L12 6.80581L12.5369 7.89373C12.6735 8.17044 12.9374 8.36225 13.2428 8.40659L14.4434 8.58106L13.5746 9.4279Z" fill="white"/>
</svg>
