<svg width="24" height="24" viewBox="0 0 24 24" fill="none" xmlns="http://www.w3.org/2000/svg">
<path d="M3.5625 16.6875C3.04472 16.6875 2.625 17.1072 2.625 17.625C2.625 18.1428 3.04472 18.5625 3.5625 18.5625H4.5V19.3125C4.5 21.8972 6.60281 24 9.1875 24H18.5625C20.1133 24 21.375 22.7383 21.375 21.1875V2.8125C21.375 1.26169 20.1133 0 18.5625 0H9.1875C6.60281 0 4.5 2.10281 4.5 4.6875V5.4375H3.5625C3.04472 5.4375 2.625 5.85722 2.625 6.375C2.625 6.89278 3.04472 7.3125 3.5625 7.3125H4.5V11.0625H3.5625C3.04472 11.0625 2.625 11.4822 2.625 12C2.625 12.5178 3.04472 12.9375 3.5625 12.9375H4.5V16.6875H3.5625ZM6.375 4.6875C6.375 3.13669 7.63669 1.875 9.1875 1.875H18.5625C19.0794 1.875 19.5 2.29556 19.5 2.8125V21.1875C19.5 21.7044 19.0794 22.125 18.5625 22.125H9.1875C7.63669 22.125 6.375 20.8633 6.375 19.3125V4.6875Z" fill="white"/>
<path d="M9.1875 20.4375H16.6875C17.2053 20.4375 17.625 20.0178 17.625 19.5C17.625 18.9822 17.2053 18.5625 16.6875 18.5625H9.1875C8.66972 18.5625 8.25 18.9822 8.25 19.5C8.25 20.0178 8.66972 20.4375 9.1875 20.4375Z" fill="white"/>
<path d="M12.9375 12.9375H11.0625C10.5447 12.9375 10.125 13.3572 10.125 13.875C10.125 14.3928 10.5447 14.8125 11.0625 14.8125H12V15.75C12 16.2678 12.4197 16.6875 12.9375 16.6875C13.4553 16.6875 13.875 16.2678 13.875 15.75V14.6512C14.9662 14.2642 15.75 13.2222 15.75 12C15.75 10.4492 14.4883 9.1875 12.9375 9.1875C12.4206 9.1875 12 8.76694 12 8.25C12 7.73306 12.4206 7.3125 12.9375 7.3125H14.8125C15.3303 7.3125 15.75 6.89278 15.75 6.375C15.75 5.85722 15.3303 5.4375 14.8125 5.4375H13.875V4.5C13.875 3.98222 13.4553 3.5625 12.9375 3.5625C12.4197 3.5625 12 3.98222 12 4.5V5.59875C10.9088 5.98575 10.125 7.02783 10.125 8.25C10.125 9.80081 11.3867 11.0625 12.9375 11.0625C13.4544 11.0625 13.875 11.4831 13.875 12C13.875 12.5169 13.4544 12.9375 12.9375 12.9375Z" fill="white"/>
</svg>
