<svg width="24" height="24" viewBox="0 0 24 24" fill="none" xmlns="http://www.w3.org/2000/svg">
<path d="M16.2657 24C15.2144 24 14.2004 23.4134 13.712 22.4157L12.2984 19.769L11.4965 21.2996C11.476 21.3389 11.4526 21.3767 11.4267 21.4127C10.9005 22.143 10.0346 22.4025 9.3935 22.4025C9.38834 22.4025 9.38319 22.4025 9.37798 22.4025C8.66154 22.3977 7.94814 22.0903 7.42084 21.559C6.87319 21.0071 6.57164 20.2746 6.57164 19.4962V7.35761C6.57164 6.25046 7.19546 5.27302 8.19958 4.8067C9.19418 4.34479 10.3312 4.4916 11.1747 5.18869L17.3504 9.78768C17.7657 10.0969 17.8516 10.6843 17.5424 11.0995C17.2331 11.5148 16.6458 11.6007 16.2306 11.2915L10.0341 6.67698C10.0187 6.66554 10.0037 6.65368 9.9891 6.64131C9.56502 6.28318 9.11675 6.44818 8.98934 6.50729C8.86202 6.5664 8.44671 6.80242 8.44671 7.35761V19.4962C8.44671 20.1003 8.94401 20.5246 9.3904 20.5275C9.39181 20.5275 9.39331 20.5275 9.39472 20.5275C9.57716 20.5275 9.77774 20.4519 9.87768 20.3495L11.4601 17.3289C11.6213 17.0212 11.9394 16.8279 12.2868 16.8265C12.2881 16.8265 12.2893 16.8265 12.2905 16.8265C12.6365 16.8265 12.9544 17.017 13.1175 17.3223L15.3746 21.5484C15.381 21.5603 15.3871 21.5723 15.3929 21.5845C15.6179 22.0534 16.185 22.2574 16.6569 22.0389C16.8919 21.9302 17.0692 21.7361 17.1563 21.4924C17.2407 21.2561 17.2299 21.0022 17.1262 20.7747L14.8483 16.7211C14.6851 16.4308 14.6882 16.0758 14.8564 15.7884C15.0246 15.501 15.3326 15.3244 15.6656 15.3244H18.8797C19.4237 15.2966 19.6408 14.8682 19.6948 14.7366C19.7501 14.6017 19.9003 14.1292 19.5121 13.7175C19.157 13.3407 19.1744 12.7474 19.5511 12.3922C19.9278 12.037 20.5212 12.0545 20.8763 12.4312C21.6456 13.2471 21.8577 14.4028 21.4299 15.4473C21.0045 16.486 20.0484 17.1572 18.9349 17.1987C18.9233 17.1992 18.9117 17.1994 18.9 17.1994H17.2678L18.777 19.885C18.7863 19.9015 18.7951 19.9183 18.8033 19.9353C19.1376 20.6246 19.1797 21.4016 18.922 22.1231C18.6643 22.8446 18.1395 23.4191 17.4442 23.7407C17.0634 23.9166 16.6619 23.9999 16.2657 24ZM7.63168 3.68169C8.08572 3.43273 8.25189 2.86287 8.00294 2.40888L7.20606 0.955739C6.9571 0.50175 6.38733 0.335577 5.93329 0.584532C5.47926 0.833488 5.31308 1.40335 5.56204 1.85734L6.35892 3.31048C6.52946 3.62145 6.85046 3.79738 7.18177 3.79738C7.33412 3.79738 7.48871 3.76016 7.63168 3.68169ZM5.64918 5.81363C5.8567 5.33925 5.64037 4.78645 5.16604 4.57893L3.66602 3.92267C3.19164 3.71511 2.63889 3.93149 2.43132 4.40582C2.2238 4.8802 2.44013 5.433 2.91447 5.64052L4.41448 6.29678C4.53678 6.35031 4.66428 6.37562 4.78977 6.37562C5.15094 6.37557 5.49515 6.16566 5.64918 5.81363ZM11.4923 2.78116L12.0079 1.23427C12.1716 0.743065 11.9062 0.212107 11.415 0.0484175C10.9239 -0.115412 10.3928 0.150137 10.2291 0.641345L9.71347 2.18824C9.54973 2.67944 9.81519 3.2104 10.3064 3.37409C10.4047 3.4069 10.5047 3.42247 10.603 3.42247C10.9955 3.42247 11.3613 3.17398 11.4923 2.78116ZM13.9734 5.15995L15.239 4.22244C15.6551 3.91424 15.7425 3.32712 15.4343 2.91105C15.1261 2.49499 14.539 2.40757 14.123 2.71572L12.8573 3.65323C12.4412 3.96144 12.3538 4.54855 12.662 4.96462C12.8459 5.21292 13.1291 5.34417 13.4161 5.34417C13.61 5.34417 13.8056 5.28422 13.9734 5.15995ZM3.73221 10.4333L5.13847 9.87084C5.61923 9.67856 5.85304 9.13293 5.66076 8.65222C5.46843 8.17142 4.92275 7.9376 4.44214 8.12993L3.03587 8.69244C2.55512 8.88472 2.3213 9.43035 2.51359 9.91106C2.66021 10.2776 3.01225 10.5007 3.3843 10.5007C3.50022 10.5007 3.61802 10.479 3.73221 10.4333Z" fill="white"/>
</svg>
