<svg width="22" height="22" viewBox="0 0 22 22" fill="none" xmlns="http://www.w3.org/2000/svg">
<g clip-path="url(#clip0)">
<path d="M19.6851 5.7887C19.2294 6.00914 19.0387 6.55743 19.2592 7.01286C19.8614 8.25694 20.1667 9.59792 20.1667 11C20.1667 16.0544 16.0544 20.1667 11 20.1667C5.94558 20.1667 1.83333 16.0544 1.83333 11C1.83333 5.94558 5.94558 1.83333 11 1.83333C13.0945 1.83333 15.0621 2.51725 16.6907 3.81101C17.0857 4.12634 17.6633 4.06032 17.9786 3.66398C18.2939 3.26786 18.2279 2.69092 17.8314 2.37604C15.9034 0.843709 13.4772 0 11 0C4.93492 0 0 4.93492 0 11C0 17.0651 4.93492 22 11 22C17.0651 22 22 17.0651 22 11C22 9.3193 21.633 7.70864 20.9092 6.21458C20.6892 5.75804 20.1391 5.56781 19.6851 5.7887Z" fill="white"/>
<path d="M11 3.66577C10.494 3.66577 10.0834 4.07644 10.0834 4.58244V10.9991C10.0834 11.5051 10.494 11.9158 11 11.9158H15.5834C16.0894 11.9158 16.5 11.5051 16.5 10.9991C16.5 10.4931 16.0894 10.0824 15.5834 10.0824H11.9167V4.58244C11.9167 4.07644 11.506 3.66577 11 3.66577Z" fill="white"/>
</g>
<defs>
<clipPath id="clip0">
<rect width="22" height="22" fill="white"/>
</clipPath>
</defs>
</svg>
