<svg width="24" height="24" viewBox="0 0 24 24" fill="none" xmlns="http://www.w3.org/2000/svg">
<g clip-path="url(#clip0)">
<path d="M5.11289 9.16943C3.68113 9.16943 2.51633 10.3342 2.51633 11.766C2.51633 13.1978 3.68113 14.3626 5.11289 14.3626C6.54465 14.3626 7.70945 13.1978 7.70945 11.766C7.70945 10.3342 6.54465 9.16943 5.11289 9.16943ZM5.11289 12.9509C4.45957 12.9509 3.928 12.4194 3.928 11.766C3.928 11.1126 4.45957 10.5811 5.11289 10.5811C5.76621 10.5811 6.29778 11.1126 6.29778 11.766C6.29778 12.4194 5.76621 12.9509 5.11289 12.9509Z" fill="white"/>
<path d="M9.71096 15.302C8.27925 15.302 7.11445 16.4668 7.11445 17.8986C7.11445 19.3303 8.27925 20.4951 9.71096 20.4951C11.1427 20.4951 12.3075 19.3303 12.3075 17.8986C12.3075 16.4668 11.1427 15.302 9.71096 15.302ZM9.71096 19.0834C9.05765 19.0834 8.52612 18.5519 8.52612 17.8985C8.52612 17.2452 9.05765 16.7136 9.71096 16.7136C10.3643 16.7136 10.8959 17.2452 10.8959 17.8985C10.8959 18.5519 10.3643 19.0834 9.71096 19.0834Z" fill="white"/>
<path d="M23.3496 15.2797C23.345 15.2751 23.3403 15.2705 23.3356 15.266L20.8914 12.9596C22.2596 11.9251 22.8777 10.0939 22.3156 8.39986C19.6658 0.405368 9.48339 -2.13091 3.41614 3.84466C-1.12791 8.32005 -1.08551 15.5362 3.22583 19.9799C7.09901 23.972 13.202 24.5326 17.7064 21.5841C19.8157 20.2038 18.846 16.9181 16.3218 16.9181C14.4367 16.9181 14.1199 14.2823 15.9006 13.831L20.2066 18.3945C20.2111 18.3992 20.2157 18.4039 20.2203 18.4086C21.0835 19.2737 22.4857 19.2761 23.3511 18.4105C24.2165 17.5452 24.2165 16.1446 23.3496 15.2797ZM14.2296 17.4964C14.7967 18.0338 15.5397 18.3297 16.3219 18.3297C17.4492 18.3297 17.8743 19.7873 16.9333 20.403C12.991 22.9837 7.63661 22.4989 4.23901 18.9969C0.428281 15.0693 0.450728 8.76603 4.42235 4.85939C9.74437 -0.375525 18.6458 1.81459 20.9757 8.84419C21.3705 10.034 20.8772 11.3268 19.8424 11.9698L15.9218 8.27007C16.1592 7.1304 15.8304 5.92895 14.969 5.06763C13.888 3.9865 10.4822 3.44763 9.00616 3.2873C8.55849 3.23855 8.17943 3.61699 8.22814 4.06532C8.38979 5.54706 8.9255 8.94513 10.0085 10.0282C10.8704 10.89 12.0725 11.2181 13.2113 10.9808L14.8628 12.731C13.1042 13.6857 12.7471 16.0915 14.2296 17.4964ZM11.0067 9.02998C10.4748 8.49807 9.99953 6.47506 9.74861 4.80772C11.416 5.05859 13.439 5.53389 13.9709 6.06579C14.7899 6.8848 14.79 8.21073 13.9709 9.02998C13.1537 9.84725 11.8275 9.85078 11.0067 9.02998ZM22.353 17.4124C22.042 17.7234 21.5385 17.7249 21.2256 17.4174C20.8643 17.0345 14.9066 10.7206 14.5747 10.3688C14.8532 10.162 15.1028 9.91238 15.3099 9.6336L22.3585 16.285C22.6663 16.5983 22.6646 17.1008 22.353 17.4124Z" fill="white"/>
</g>
<defs>
<clipPath id="clip0">
<rect width="24" height="24" fill="white"/>
</clipPath>
</defs>
</svg>
