<svg width="27" height="27" viewBox="0 0 27 27" fill="none" xmlns="http://www.w3.org/2000/svg">
<g clip-path="url(#clip0)">
<path d="M24.5655 15.5895C24.1812 15.3102 23.6434 15.3952 23.3641 15.7794L20.6343 19.5338L17.9044 15.7794C17.6251 15.3953 17.0872 15.3102 16.703 15.5895C16.3189 15.8689 16.2338 16.4068 16.5132 16.7909L19.2143 20.5058H18.7865C18.3115 20.5058 17.9264 20.8908 17.9264 21.3658C17.9264 21.8408 18.3115 22.2259 18.7865 22.2259H19.7743V22.5999H18.7865C18.3115 22.5999 17.9264 22.985 17.9264 23.46C17.9264 23.9349 18.3115 24.32 18.7865 24.32H19.7743V26.1401C19.7743 26.6151 20.1593 27.0002 20.6343 27.0002C21.1093 27.0002 21.4944 26.6151 21.4944 26.1401V24.32H22.4822C22.9571 24.32 23.3422 23.9349 23.3422 23.46C23.3422 22.985 22.9571 22.5999 22.4822 22.5999H21.4944V22.2259H22.4822C22.9571 22.2259 23.3422 21.8408 23.3422 21.3658C23.3422 20.8908 22.9571 20.5058 22.4822 20.5058H22.0544L24.7554 16.7909C25.0346 16.4068 24.9496 15.8689 24.5655 15.5895Z" fill="white"/>
<path d="M18.9326 9.73201C18.9326 9.25704 18.5475 8.87197 18.0725 8.87197C17.5975 8.87197 17.2125 9.25704 17.2125 9.73201C17.2125 11.3218 18.3024 12.6618 19.7742 13.0442V13.4806C19.7742 13.9556 20.1593 14.3407 20.6343 14.3407C21.1092 14.3407 21.4943 13.9556 21.4943 13.4806V13.0442C22.9661 12.6618 24.056 11.3218 24.056 9.73201C24.056 8.14219 22.9661 6.80229 21.4943 6.41986V3.14118C21.9974 3.43715 22.3359 3.98397 22.3359 4.60865C22.3359 5.08363 22.721 5.4687 23.196 5.4687C23.671 5.4687 24.056 5.08363 24.056 4.60865C24.056 3.01883 22.9661 1.67887 21.4943 1.29644V0.860048C21.4943 0.385072 21.1092 0 20.6343 0C20.1593 0 19.7742 0.385072 19.7742 0.860048V1.29644C18.3024 1.67887 17.2125 3.01883 17.2125 4.60865C17.2125 6.19848 18.3024 7.53843 19.7742 7.92087V11.1995C19.2711 10.9035 18.9326 10.3567 18.9326 9.73201ZM22.3359 9.73201C22.3359 10.3567 21.9973 10.9035 21.4942 11.1995V8.2646C21.9973 8.56063 22.3359 9.10739 22.3359 9.73201ZM18.9326 4.60865C18.9326 3.98397 19.2711 3.43715 19.7742 3.14118V6.07612C19.2711 5.78015 18.9326 5.23333 18.9326 4.60865Z" fill="white"/>
<path d="M11.5416 23.7039C11.1325 23.4625 10.6053 23.5984 10.3638 24.0074C9.90062 24.7923 9.04762 25.2799 8.13769 25.2799C6.85937 25.2799 5.79555 24.346 5.59126 23.1248H8.07015C8.54512 23.1248 8.9302 22.7397 8.9302 22.2647C8.9302 21.7897 8.54512 21.4047 8.07015 21.4047H5.55525V21.0202H8.07015C8.54512 21.0202 8.9302 20.6351 8.9302 20.1601C8.9302 19.6851 8.54512 19.3001 8.07015 19.3001H5.59126C5.79555 18.0789 6.85937 17.145 8.13769 17.145C8.91936 17.145 9.65063 17.4935 10.144 18.1012C10.4434 18.4701 10.9851 18.5262 11.3538 18.2268C11.7225 17.9274 11.7788 17.3858 11.4794 17.017C10.6579 16.0052 9.43986 15.4248 8.13769 15.4248C5.90948 15.4248 4.07173 17.1275 3.85649 19.3H2.94025C2.46527 19.3 2.0802 19.6851 2.0802 20.1601C2.0802 20.635 2.46527 21.0201 2.94025 21.0201H3.83516V21.4046H2.94025C2.46527 21.4046 2.0802 21.7897 2.0802 22.2647C2.0802 22.7396 2.46527 23.1247 2.94025 23.1247H3.85654C4.07178 25.2972 5.90953 26.9999 8.13775 26.9999C9.6535 26.9999 11.0741 26.1882 11.8452 24.8816C12.0866 24.4726 11.9507 23.9452 11.5416 23.7039Z" fill="white"/>
<path d="M3.35419 12.9579H10.0483C10.5233 12.9579 10.9084 12.5728 10.9084 12.0979C10.9084 11.6229 10.5233 11.2378 10.0483 11.2378H5.95039V8.68657H7.94644C8.42142 8.68657 8.80649 8.3015 8.80649 7.82652C8.80649 7.35154 8.42142 6.96647 7.94644 6.96647H5.95039V5.043C5.95039 3.97322 6.8207 3.10291 7.89048 3.10291C8.96027 3.10291 9.83058 3.97322 9.83058 5.043C9.83058 5.51798 10.2157 5.90305 10.6906 5.90305C11.1656 5.90305 11.5507 5.51798 11.5507 5.043C11.5507 3.02476 9.90873 1.38281 7.89048 1.38281C5.87224 1.38281 4.23029 3.02476 4.23029 5.043V6.96647H3.69024C3.21526 6.96647 2.83019 7.35154 2.83019 7.82652C2.83019 8.3015 3.21526 8.68657 3.69024 8.68657H4.23029V11.2378H3.35419C2.87921 11.2378 2.49414 11.6229 2.49414 12.0979C2.49414 12.5728 2.87921 12.9579 3.35419 12.9579Z" fill="white"/>
</g>
<defs>
<clipPath id="clip0">
<rect width="27" height="27" fill="white"/>
</clipPath>
</defs>
</svg>
