<svg width="21" height="19" viewBox="0 0 21 19" fill="none" xmlns="http://www.w3.org/2000/svg">
<path fill-rule="evenodd" clip-rule="evenodd" d="M1 3.37838C1 2.06482 2.07795 1 3.40766 1H17.4159C18.7456 1 19.8235 2.06482 19.8235 3.37838V12.027C19.8235 13.3406 18.7456 14.4054 17.4159 14.4054H3.40766C2.07795 14.4054 1 13.3406 1 12.027V3.37838ZM3.40766 2.2973C2.80324 2.2973 2.31327 2.78128 2.31327 3.37838V12.027C2.31327 12.6241 2.80324 13.1081 3.40766 13.1081H17.4159C18.0203 13.1081 18.5103 12.6241 18.5103 12.027V3.37838C18.5103 2.78128 18.0203 2.2973 17.4159 2.2973H3.40766Z" fill="white" stroke="white"/>
<path fill-rule="evenodd" clip-rule="evenodd" d="M1 3.37838C1 2.06482 2.07795 1 3.40766 1H17.4159C18.7456 1 19.8235 2.06482 19.8235 3.37838V12.027C19.8235 13.3406 18.7456 14.4054 17.4159 14.4054H3.40766C2.07795 14.4054 1 13.3406 1 12.027V3.37838ZM3.40766 2.2973C2.80324 2.2973 2.31327 2.78128 2.31327 3.37838V12.027C2.31327 12.6241 2.80324 13.1081 3.40766 13.1081H17.4159C18.0203 13.1081 18.5103 12.6241 18.5103 12.027V3.37838C18.5103 2.78128 18.0203 2.2973 17.4159 2.2973H3.40766Z" fill="white" stroke="white"/>
<path fill-rule="evenodd" clip-rule="evenodd" d="M7.6357 17.0614L8.94896 14.4668L10.1235 15.047L8.81028 17.6416L7.6357 17.0614Z" fill="white" stroke="white"/>
<path fill-rule="evenodd" clip-rule="evenodd" d="M10.7 15.047L12.0133 17.6416L13.1879 17.0614L11.8746 14.4668L10.7 15.047Z" fill="white" stroke="white"/>
<path fill-rule="evenodd" clip-rule="evenodd" d="M14.7893 17.9999H6.03419V16.7026H14.7893V17.9999Z" fill="white" stroke="white"/>
</svg>
