<svg width="24" height="24" viewBox="0 0 24 24" fill="none" xmlns="http://www.w3.org/2000/svg">
<g clip-path="url(#clip0)">
<path d="M22.8972 11.2319L15.2452 3.60707L17.2538 1.60073C17.6201 1.23482 17.6204 0.641196 17.2545 0.274915C16.8886 -0.0914132 16.2951 -0.0916944 15.9287 0.274165L4.61578 11.5747C3.03534 12.0157 1.87247 13.4684 1.87247 15.1875C1.87247 15.7053 2.29219 16.125 2.80997 16.125C3.32775 16.125 3.74747 15.7053 3.74747 15.1875C3.74747 14.4599 4.16404 13.8278 4.77117 13.5171L12.7022 21.421C13.4332 22.1512 14.3929 22.5162 15.3528 22.5162C16.3128 22.5161 17.2729 22.1508 18.0033 21.4205L22.8991 16.5373C23.6076 15.8288 23.9976 14.8868 23.9975 13.8849C23.9973 12.8829 23.6069 11.9411 22.8972 11.2319ZM21.5742 15.2105L16.6783 20.0938C15.9477 20.8245 14.7584 20.8248 14.0266 20.0937L7.22212 13.3125H17.6225C18.1403 13.3125 18.56 12.8928 18.56 12.375C18.56 11.8573 18.1403 11.4375 17.6225 11.4375H7.40625L13.9187 4.93223L21.5728 12.5593C21.9272 12.9134 22.1224 13.3843 22.1225 13.8853C22.1226 14.3862 21.9276 14.8571 21.5742 15.2105Z" fill="white"/>
<path d="M4.46114 18.7169C3.9841 18.0046 3.51235 17.429 3.49247 17.4048C3.31439 17.1881 3.04861 17.0625 2.76816 17.0625C2.4877 17.0625 2.22192 17.1881 2.04385 17.4048C2.02397 17.429 1.55222 18.0046 1.07517 18.7169C0.11372 20.1524 0.00253296 20.8411 0.00253296 21.2344C0.00253296 22.7594 1.24322 24 2.76816 24C4.2931 24 5.53378 22.7594 5.53378 21.2344C5.53378 20.8411 5.4226 20.1524 4.46114 18.7169ZM2.76816 22.125C2.27705 22.125 1.87753 21.7255 1.87749 21.2367C1.87767 21.2329 1.90214 20.8491 2.64099 19.7484C2.6835 19.6851 2.72597 19.6229 2.76816 19.5623C2.8103 19.6229 2.85281 19.6851 2.89533 19.7484C3.62133 20.83 3.65761 21.2194 3.65878 21.2361C3.65785 21.7264 3.25866 22.125 2.76816 22.125Z" fill="white"/>
</g>
<defs>
<clipPath id="clip0">
<rect width="24" height="24" fill="white"/>
</clipPath>
</defs>
</svg>
