<svg width="27" height="27" viewBox="0 0 27 27" fill="none" xmlns="http://www.w3.org/2000/svg">
<path d="M5.27344 19.8281H21.7266C24.6343 19.8281 27 17.4625 27 14.5547V6.11719C27 3.20941 24.6343 0.84375 21.7266 0.84375H5.27344C2.36566 0.84375 0 3.20941 0 6.11719V14.5547C0 17.4625 2.36566 19.8281 5.27344 19.8281ZM2.10938 6.11719C2.10938 4.37252 3.52877 2.95312 5.27344 2.95312H21.7266C23.4712 2.95312 24.8906 4.37252 24.8906 6.11719V14.5547C24.8906 16.2994 23.4712 17.7188 21.7266 17.7188H5.27344C3.52877 17.7188 2.10938 16.2994 2.10938 14.5547V6.11719Z" fill="white"/>
<path d="M17.7188 24.0469H14.5547V22.9922C14.5547 22.4097 14.0825 21.9375 13.5 21.9375C12.9175 21.9375 12.4453 22.4097 12.4453 22.9922V24.0469H9.28125C8.69875 24.0469 8.22656 24.5191 8.22656 25.1016C8.22656 25.6841 8.69875 26.1562 9.28125 26.1562H17.7188C18.3013 26.1562 18.7734 25.6841 18.7734 25.1016C18.7734 24.5191 18.3013 24.0469 17.7188 24.0469Z" fill="white"/>
<path d="M7.38281 15.6094H13.7109C14.2934 15.6094 14.7656 15.1372 14.7656 14.5547C14.7656 13.9722 14.2934 13.5 13.7109 13.5H7.38281C6.9312 13.5 6.54608 13.2141 6.39605 12.8142L9.18327 10.027C9.29459 9.9157 9.42463 9.89903 9.49219 9.89903C9.55979 9.89903 9.68978 9.91564 9.80111 10.027C10.282 10.508 10.9214 10.7728 11.6016 10.7728C12.2817 10.7728 12.9211 10.508 13.402 10.027L14.4567 8.97233C14.8686 8.56042 14.8686 7.89265 14.4567 7.48079C14.0448 7.06894 13.377 7.06888 12.9652 7.48079L11.9105 8.53548C11.7992 8.6468 11.6692 8.66341 11.6016 8.66341C11.534 8.66341 11.404 8.6468 11.2926 8.53548C10.8118 8.05454 10.1723 7.78971 9.49219 7.78971C8.81207 7.78971 8.17267 8.05454 7.69173 8.53548L6.32813 9.89909V6.11719C6.32813 5.53468 5.85594 5.0625 5.27344 5.0625C4.69093 5.0625 4.21875 5.53468 4.21875 6.11719V12.4453C4.21875 14.19 5.63815 15.6094 7.38281 15.6094Z" fill="white"/>
<path d="M17.7188 7.17188H21.9375C22.52 7.17188 22.9922 6.69969 22.9922 6.11719C22.9922 5.53468 22.52 5.0625 21.9375 5.0625H17.7188C17.1362 5.0625 16.6641 5.53468 16.6641 6.11719C16.6641 6.69969 17.1362 7.17188 17.7188 7.17188Z" fill="white"/>
<path d="M17.7188 15.6094H21.9375C22.52 15.6094 22.9922 15.1372 22.9922 14.5547C22.9922 13.9722 22.52 13.5 21.9375 13.5H17.7188C17.1362 13.5 16.6641 13.9722 16.6641 14.5547C16.6641 15.1372 17.1362 15.6094 17.7188 15.6094Z" fill="white"/>
<path d="M21.9375 9.28125H17.7188C17.1362 9.28125 16.6641 9.75343 16.6641 10.3359C16.6641 10.9184 17.1362 11.3906 17.7188 11.3906H21.9375C22.52 11.3906 22.9922 10.9184 22.9922 10.3359C22.9922 9.75343 22.52 9.28125 21.9375 9.28125Z" fill="white"/>
</svg>
