<svg width="27" height="27" viewBox="0 0 27 27" fill="none" xmlns="http://www.w3.org/2000/svg">
<path d="M24.0469 15.6094C24.6294 15.6094 25.1016 15.1372 25.1016 14.5547V8.22656C25.1016 5.31879 22.736 2.95312 19.8281 2.95312H7.17188C4.26405 2.95312 1.89844 5.31879 1.89844 8.22656V14.5547C1.89844 15.1372 2.37062 15.6094 2.95312 15.6094C3.53563 15.6094 4.00781 15.1372 4.00781 14.5547V8.22656C4.00781 6.4819 5.42721 5.0625 7.17188 5.0625H19.8281C21.5728 5.0625 22.9922 6.4819 22.9922 8.22656V14.5547C22.9922 15.1372 23.4644 15.6094 24.0469 15.6094Z" fill="white"/>
<path d="M23.8359 17.7188H3.16406C1.4194 17.7188 0 19.1381 0 20.8828C0 22.6275 1.4194 24.0469 3.16406 24.0469H23.8359C25.5806 24.0469 27 22.6275 27 20.8828C27 19.1381 25.5806 17.7188 23.8359 17.7188ZM23.8359 21.9375H3.16406C2.58251 21.9375 2.10938 21.4644 2.10938 20.8828C2.10938 20.3013 2.58251 19.8281 3.16406 19.8281H23.8359C24.4175 19.8281 24.8906 20.3013 24.8906 20.8828C24.8906 21.4644 24.4175 21.9375 23.8359 21.9375Z" fill="white"/>
<path d="M9.28125 15.6094C9.86375 15.6094 10.3359 15.1372 10.3359 14.5547V12.4453C10.3359 11.8628 9.86375 11.3906 9.28125 11.3906C8.69875 11.3906 8.22656 11.8628 8.22656 12.4453V14.5547C8.22656 15.1372 8.69875 15.6094 9.28125 15.6094Z" fill="white"/>
<path d="M13.5 15.6094C14.0825 15.6094 14.5547 15.1372 14.5547 14.5547V10.3359C14.5547 9.75343 14.0825 9.28125 13.5 9.28125C12.9175 9.28125 12.4453 9.75343 12.4453 10.3359V14.5547C12.4453 15.1372 12.9175 15.6094 13.5 15.6094Z" fill="white"/>
<path d="M17.7188 7.17188C17.1362 7.17188 16.6641 7.64406 16.6641 8.22656V14.5547C16.6641 15.1372 17.1362 15.6094 17.7188 15.6094C18.3013 15.6094 18.7734 15.1372 18.7734 14.5547V8.22656C18.7734 7.64406 18.3013 7.17188 17.7188 7.17188Z" fill="white"/>
</svg>
