<svg width="24" height="24" viewBox="0 0 24 24" fill="none" xmlns="http://www.w3.org/2000/svg">
<path d="M21.54 17.73H2.46002V5.31995C2.46002 4.56051 2.76102 3.83202 3.29709 3.29408C3.83316 2.75614 4.56059 2.4526 5.32002 2.44995H18.68C19.4395 2.4526 20.1669 2.75614 20.703 3.29408C21.239 3.83202 21.54 4.56051 21.54 5.31995V17.73ZM4.36002 15.82H19.64V5.31995C19.64 5.05474 19.5347 4.80038 19.3471 4.61284C19.1596 4.42531 18.9052 4.31995 18.64 4.31995H5.32002C5.05481 4.31995 4.80045 4.42531 4.61292 4.61284C4.42538 4.80038 4.32002 5.05474 4.32002 5.31995L4.36002 15.82Z" fill="white"/>
<path d="M20.59 21.5498H3.40999C2.65055 21.5472 1.92312 21.2436 1.38705 20.7057C0.850984 20.1677 0.549983 19.4393 0.549988 18.6798V15.8198H23.45V18.6798C23.45 19.4393 23.149 20.1677 22.6129 20.7057C22.0769 21.2436 21.3494 21.5472 20.59 21.5498ZM2.44999 17.7298V18.6798C2.44999 18.945 2.55534 19.1994 2.74288 19.3869C2.93042 19.5745 3.18477 19.6798 3.44999 19.6798H20.59C20.8552 19.6798 21.1096 19.5745 21.2971 19.3869C21.4846 19.1994 21.59 18.945 21.59 18.6798V17.7298H2.44999Z" fill="white"/>
<path d="M8.18002 13.3501L6.83002 12.0001L11.05 7.79008L12.95 9.70008L15.82 6.83008L17.17 8.18008L12.95 12.4001L11.05 10.4901L8.18002 13.3501Z" fill="white"/>
</svg>
