<svg width="25" height="25" viewBox="0 0 25 25" fill="none" xmlns="http://www.w3.org/2000/svg">
<g clip-path="url(#clip0)">
<path d="M17.7734 8.40143C18.6363 8.40143 19.3359 7.70188 19.3359 6.83894C19.3359 5.976 18.6363 5.27644 17.7734 5.27644C16.9104 5.27644 16.2109 5.976 16.2109 6.83894C16.2109 7.70188 16.9104 8.40143 17.7734 8.40143Z" fill="white"/>
<path d="M24.7303 8.10281C24.2088 6.77499 23.2525 4.85913 21.6583 3.27241C20.0696 1.69117 18.1741 0.762267 16.8637 0.26139C15.425 -0.288462 13.7902 0.058119 12.6989 1.1443L8.86403 4.96118C7.72726 6.09257 7.39963 7.83348 8.0487 9.29319C8.24997 9.74592 8.46886 10.1887 8.70275 10.6166L0.286034 19.0332C0.10288 19.2164 0 19.4648 0 19.7238V24.0207C0 24.56 0.437205 24.9972 0.976559 24.9972H5.27342C5.81277 24.9972 6.24998 24.56 6.24998 24.0207V22.2629L8.00778 22.2628C8.54713 22.2628 8.98434 21.8256 8.98434 21.2863V19.5285H10.7421C11.2815 19.5285 11.7187 19.0913 11.7187 18.5519C11.7187 18.0126 11.2815 17.5754 10.7421 17.5754H8.00778C7.46843 17.5754 7.03122 18.0126 7.03122 18.5519V20.3097L5.27342 20.3098C4.73406 20.3098 4.29686 20.747 4.29686 21.2863V23.0441H1.95312V20.1283L10.613 11.4685C10.9312 11.1503 10.9908 10.656 10.7574 10.2714C10.419 9.71355 10.1081 9.11746 9.83346 8.49964C9.51124 7.77498 9.6754 6.90931 10.242 6.3454L14.0768 2.52857C14.6243 1.9837 15.4445 1.80992 16.1665 2.0858C17.3004 2.51919 18.9345 3.31694 20.2805 4.65669C21.6348 6.00453 22.4592 7.66288 22.9124 8.81668C23.1951 9.53679 23.0233 10.3549 22.4746 10.901L18.5935 14.764C18.0283 15.3264 17.1847 15.4909 16.4443 15.1829C15.8336 14.9289 15.2421 14.6272 14.6865 14.2861C14.2268 14.004 13.6255 14.1479 13.3434 14.6076C13.0612 15.0672 13.2051 15.6686 13.6648 15.9507C14.307 16.3449 14.9898 16.6933 15.6942 16.9862C17.1659 17.5985 18.8448 17.2694 19.9713 16.1483L23.8524 12.2854C24.9532 11.1897 25.2978 9.54798 24.7303 8.10281Z" fill="white"/>
</g>
<defs>
<clipPath id="clip0">
<rect width="25" height="25" fill="white"/>
</clipPath>
</defs>
</svg>
