<svg width="26" height="18" viewBox="0 0 26 18" fill="none" xmlns="http://www.w3.org/2000/svg">
<path d="M15.8312 9.63349C14.3562 9.63349 13.1552 8.43357 13.1552 6.95749C13.1552 5.48141 14.3562 4.28149 15.8312 4.28149C17.3062 4.28149 18.5072 5.48141 18.5072 6.95749C18.5072 8.43357 17.3062 9.63349 15.8312 9.63349ZM15.8312 5.88709C15.2414 5.88709 14.7608 6.36663 14.7608 6.95749C14.7608 7.54835 15.2414 8.02789 15.8312 8.02789C16.421 8.02789 16.9016 7.54835 16.9016 6.95749C16.9016 6.36663 16.421 5.88709 15.8312 5.88709Z" fill="white"/>
<path d="M8.8736 6.15479H11.0144V7.76037H8.8736V6.15479Z" fill="white"/>
<path d="M20.648 6.15479H22.7888V7.76037H20.648V6.15479Z" fill="white"/>
<path d="M23.0564 13.9152H12.1383C11.6952 13.9152 11.3355 13.5555 11.3355 13.1124C11.3355 12.6692 11.6952 12.3096 12.1383 12.3096H23.0564C23.7939 12.3096 24.3944 11.7091 24.3944 10.9716V2.9436C24.3944 2.20609 23.7939 1.6056 23.0564 1.6056H8.606C7.86849 1.6056 7.268 2.20609 7.268 2.9436V10.2576C7.268 10.7008 6.90834 11.0604 6.4652 11.0604C6.02205 11.0604 5.6624 10.7008 5.6624 10.2576V2.9436C5.6624 1.3198 6.9822 0 8.606 0H23.0564C24.6802 0 26 1.3198 26 2.9436V10.9716C26 12.5954 24.6802 13.9152 23.0564 13.9152Z" fill="white"/>
<path d="M0.438849 17.2365L0.20015 15.6491L6.30036 14.7339C7.47352 14.5658 8.5771 14.1741 9.58649 13.5682L12.2818 11.9498C12.6553 11.7261 12.8876 11.3161 12.8876 10.8805C12.8876 10.1922 12.3278 9.63343 11.6395 9.63343C10.9716 9.63343 10.3197 9.75867 9.69888 10.007L4.67978 12.0151L4.08356 10.524L9.10267 8.51593C9.91403 8.1916 10.7671 8.02783 11.6395 8.02783C13.213 8.02783 14.4932 9.30696 14.4932 10.8805C14.4932 11.8781 13.9623 12.8157 13.107 13.3274L10.4128 14.9437C9.21827 15.6609 7.91345 16.1254 6.53264 16.3213L0.438849 17.2365Z" fill="white"/>
<path d="M16.8738 17.1264C16.117 17.1264 15.4298 16.7742 14.9877 16.1609C14.5446 15.5475 14.429 14.7833 14.6677 14.065L15.0691 12.8587C15.1783 12.5311 15.4855 12.3096 15.8301 12.3096H19.0413C19.2993 12.3096 19.5412 12.4337 19.6921 12.6435C19.843 12.8533 19.8837 13.122 19.8024 13.3671L19.0788 15.5368C18.7641 16.4873 17.8778 17.1264 16.8738 17.1264ZM16.4103 13.9152L16.1909 14.5724C16.117 14.795 16.1523 15.0316 16.2904 15.2211C16.6094 15.6642 17.3854 15.5443 17.5577 15.0284L17.9281 13.9152H16.4103Z" fill="white"/>
<path d="M13.6626 17.1264C12.9058 17.1264 12.2186 16.7742 11.7765 16.1609C11.3334 15.5475 11.2178 14.7833 11.4565 14.065L11.8579 12.8587C11.9671 12.5311 12.2743 12.3096 12.6189 12.3096H15.8301C16.0881 12.3096 16.33 12.4337 16.4809 12.6435C16.6319 12.8533 16.6725 13.122 16.5912 13.3671L15.8676 15.5368C15.5529 16.4873 14.6666 17.1264 13.6626 17.1264ZM13.1991 13.9152L12.9797 14.5724C12.9058 14.795 12.9411 15.0316 13.0792 15.2211C13.3971 15.6642 14.1742 15.5443 14.3466 15.0284L14.7169 13.9152H13.1991Z" fill="white"/>
<path d="M10.4514 17.1263C9.27073 17.1263 8.2774 16.2432 8.13931 15.0712C8.08793 14.6301 8.40263 14.232 8.84364 14.1795C9.27822 14.1356 9.68283 14.4428 9.73528 14.8828C9.77167 15.1921 10.035 15.5207 10.4514 15.5207C10.7629 15.5207 11.0369 15.3227 11.1354 15.0294L11.859 12.8586C11.9981 12.4369 12.453 12.2121 12.8748 12.3502C13.2954 12.4915 13.5224 12.9453 13.3821 13.366L12.6585 15.5357C12.3417 16.4873 11.4554 17.1263 10.4514 17.1263Z" fill="white"/>
<path d="M1.33586 6.19752L0 5.30695L0.804941 4.09954C2.06908 2.20279 4.18527 1.07031 6.46522 1.07031H7.26802V2.67591H6.46522C4.72368 2.67591 3.1063 3.54186 2.1408 4.99011L1.33586 6.19752Z" fill="white"/>
</svg>
