<svg width="32" height="28" viewBox="0 0 32 28" fill="none" xmlns="http://www.w3.org/2000/svg">
<path d="M16 11.1289C18.8109 11.1289 21.0977 8.84211 21.0977 6.03125C21.0977 3.22039 18.8109 0.933594 16 0.933594C13.1891 0.933594 10.9023 3.22039 10.9023 6.03125C10.9023 8.84211 13.1891 11.1289 16 11.1289ZM16 2.69141C17.8416 2.69141 19.3398 4.18965 19.3398 6.03125C19.3398 7.87285 17.8416 9.37109 16 9.37109C14.1584 9.37109 12.6602 7.87285 12.6602 6.03125C12.6602 4.18965 14.1584 2.69141 16 2.69141Z" fill="white" stroke="white" stroke-width="0.5"/>
<path d="M26.3125 11.1289C28.0895 11.1289 29.5352 9.68322 29.5352 7.90625C29.5352 6.12928 28.0895 4.68359 26.3125 4.68359C24.5355 4.68359 23.0898 6.12928 23.0898 7.90625C23.0898 9.68322 24.5355 11.1289 26.3125 11.1289ZM26.3125 6.44141C27.1202 6.44141 27.7773 7.09854 27.7773 7.90625C27.7773 8.71396 27.1202 9.37109 26.3125 9.37109C25.5048 9.37109 24.8477 8.71396 24.8477 7.90625C24.8477 7.09854 25.5048 6.44141 26.3125 6.44141Z" fill="white" stroke="white" stroke-width="0.5"/>
<path d="M27.0215 13.1211H25.6621C24.0602 13.1211 22.6774 14.0675 22.0473 15.4269C20.75 14.0107 18.8865 13.1211 16.8191 13.1211H15.181C13.1136 13.1211 11.2501 14.0107 9.95277 15.4269C9.3226 14.0675 7.93979 13.1211 6.33789 13.1211H4.97852C2.78477 13.1211 1 14.8951 1 17.0756V23.4746C1 24.4213 1.77309 25.1914 2.72336 25.1914H8.09799C8.18811 26.2402 9.07006 27.0664 10.1419 27.0664H21.8581C22.9299 27.0664 23.8119 26.2402 23.9021 25.1914H29.2153C30.1994 25.1914 31.0001 24.3939 31.0001 23.4137V17.0756C31 14.8951 29.2152 13.1211 27.0215 13.1211ZM2.75781 17.0756C2.75781 15.8643 3.75402 14.8789 4.97852 14.8789H6.33789C7.56238 14.8789 8.55859 15.8643 8.55859 17.0756V17.6774C7.96756 19.2163 8.08984 20.1386 8.08984 23.4336H2.75781V17.0756ZM22.1523 25.0144C22.1523 25.1766 22.0204 25.3086 21.8581 25.3086H10.1419C9.97961 25.3086 9.84766 25.1766 9.84766 25.0144V20.2122C9.84766 17.2714 12.2402 14.8789 15.1809 14.8789H16.819C19.7598 14.8789 22.1523 17.2714 22.1523 20.2122V25.0144ZM29.2422 23.4137C29.2422 23.444 29.5698 23.4336 23.9102 23.4336C23.9102 20.1142 24.0315 19.2138 23.4414 17.6774V17.0756C23.4414 15.8643 24.4376 14.8789 25.6621 14.8789H27.0215C28.246 14.8789 29.2422 15.8643 29.2422 17.0756V23.4137Z" fill="white" stroke="white" stroke-width="0.5"/>
<path d="M5.6875 11.1289C7.46447 11.1289 8.91016 9.68322 8.91016 7.90625C8.91016 6.12928 7.46447 4.68359 5.6875 4.68359C3.91053 4.68359 2.46484 6.12928 2.46484 7.90625C2.46484 9.68322 3.91053 11.1289 5.6875 11.1289ZM5.6875 6.44141C6.49521 6.44141 7.15234 7.09854 7.15234 7.90625C7.15234 8.71396 6.49521 9.37109 5.6875 9.37109C4.87979 9.37109 4.22266 8.71396 4.22266 7.90625C4.22266 7.09854 4.87979 6.44141 5.6875 6.44141Z" fill="white" stroke="white" stroke-width="0.5"/>
</svg>
