<svg width="31" height="31" viewBox="0 0 31 31" fill="none" xmlns="http://www.w3.org/2000/svg">
<path d="M26.4602 4.5398C23.5326 1.6123 19.6402 0 15.5 0C11.3598 0 7.46743 1.6123 4.5398 4.5398C1.6123 7.46743 0 11.3598 0 15.5C0 19.6402 1.6123 23.5326 4.5398 26.4602C7.46743 29.3877 11.3598 31 15.5 31C18.3344 31 21.1077 30.2275 23.5202 28.7662C24.0921 28.4197 24.275 27.6751 23.9285 27.1031C23.5819 26.531 22.8374 26.3482 22.2653 26.6948C20.2314 27.9269 17.8919 28.5781 15.5 28.5781C8.28869 28.5781 2.42188 22.7113 2.42188 15.5C2.42188 8.28869 8.28869 2.42188 15.5 2.42188C22.7113 2.42188 28.5781 8.28869 28.5781 15.5C28.5781 18.0786 27.8113 20.5886 26.3605 22.7586C25.9888 23.3145 26.1382 24.0666 26.6941 24.4383C27.2502 24.8101 28.0022 24.6606 28.3738 24.1047C30.0919 21.5349 31 18.5594 31 15.5C31 11.3598 29.3877 7.46743 26.4602 4.5398Z" fill="white"/>
<path d="M11.7642 22.6199C11.9473 22.7189 12.1445 22.7659 12.339 22.7659C12.7694 22.7659 13.1863 22.5357 13.4053 22.1305L19.9509 10.0212C20.269 9.43278 20.0498 8.69804 19.4615 8.38011C18.873 8.06205 18.1383 8.28124 17.8204 8.86951L11.2748 20.9789C10.9568 21.5672 11.1759 22.302 11.7642 22.6199Z" fill="white"/>
<path d="M13.502 11.2617C13.502 9.59244 12.1439 8.23438 10.4746 8.23438C8.80533 8.23438 7.44727 9.59244 7.44727 11.2617C7.44727 12.931 8.80533 14.2891 10.4746 14.2891C12.1439 14.2891 13.502 12.931 13.502 11.2617ZM10.4746 11.8672C10.1408 11.8672 9.86914 11.5956 9.86914 11.2617C9.86914 10.9279 10.1408 10.6562 10.4746 10.6562C10.8085 10.6562 11.0801 10.9279 11.0801 11.2617C11.0801 11.5956 10.8085 11.8672 10.4746 11.8672Z" fill="white"/>
<path d="M20.4648 22.7656C22.1341 22.7656 23.4922 21.4076 23.4922 19.7383C23.4922 18.069 22.1341 16.7109 20.4648 16.7109C18.7956 16.7109 17.4375 18.069 17.4375 19.7383C17.4375 21.4076 18.7956 22.7656 20.4648 22.7656ZM20.4648 19.1328C20.7987 19.1328 21.0703 19.4044 21.0703 19.7383C21.0703 20.0721 20.7987 20.3438 20.4648 20.3438C20.131 20.3438 19.8594 20.0721 19.8594 19.7383C19.8594 19.4044 20.131 19.1328 20.4648 19.1328Z" fill="white"/>
</svg>
