<svg width="24" height="24" viewBox="0 0 24 24" fill="none" xmlns="http://www.w3.org/2000/svg">
<g clip-path="url(#clip0)">
<path d="M17.4375 10.1248C17.9553 10.1248 18.375 9.70502 18.375 9.18726C18.375 8.66949 17.9553 8.24976 17.4375 8.24976C16.9197 8.24976 16.5 8.66949 16.5 9.18726C16.5 9.70502 16.9197 10.1248 17.4375 10.1248Z" fill="white"/>
<path d="M21.4579 8.26283C21.1461 7.60353 20.7369 7.00634 20.25 6.5007V3.56244C20.25 2.86105 19.9942 2.18595 19.5299 1.66161C19.0427 1.11153 18.381 0.789735 17.6667 0.755516C15.5515 0.654079 13.7052 1.96161 13.0257 3.85063C12.9128 4.1645 12.6516 4.49994 12.2573 4.49994H6.5625C2.94394 4.49994 0 7.44388 0 11.0624V12.9374C0 15.2679 1.23942 17.4144 3.27422 18.5928C3.57216 18.7654 3.75 19.0659 3.75 19.3969V20.4374C3.75 21.9883 5.01169 23.2499 6.5625 23.2499C8.11331 23.2499 9.375 21.9883 9.375 20.4374C9.375 19.9205 9.79556 19.4999 10.3125 19.4999H11.8125C12.3294 19.4999 12.75 19.9205 12.75 20.4374C12.75 21.9883 14.0117 23.2499 15.5625 23.2499C17.1133 23.2499 18.375 21.9883 18.375 20.4374V19.395C18.375 19.0691 18.5513 18.7648 18.8352 18.6009C19.9928 17.9325 20.9162 16.9291 21.4854 15.7343C22.8967 15.585 24 14.3877 24 12.9374V11.0624C24 9.6028 22.8824 8.39928 21.4579 8.26283ZM22.125 12.9374C22.125 13.4544 21.7044 13.8749 21.1875 13.8749H20.8548C20.459 13.8749 20.1058 14.1236 19.9722 14.4963C19.5986 15.5393 18.8618 16.4203 17.8976 16.9771C17.0355 17.4749 16.5 18.4014 16.5 19.395V20.4374C16.5 20.9544 16.0794 21.3749 15.5625 21.3749C15.0456 21.3749 14.625 20.9544 14.625 20.4374C14.625 18.8866 13.3633 17.6249 11.8125 17.6249H10.3125C8.76169 17.6249 7.5 18.8866 7.5 20.4374C7.5 20.9544 7.07944 21.3749 6.5625 21.3749C6.04556 21.3749 5.625 20.9544 5.625 20.4374V19.3969C5.625 18.4042 5.08425 17.4743 4.21388 16.9703C2.74931 16.1222 1.875 14.6146 1.875 12.9374V11.0624C1.875 8.47775 3.97781 6.37494 6.5625 6.37494H12.2573C13.3829 6.37494 14.377 5.63319 14.79 4.48531C15.211 3.31494 16.33 2.56897 17.577 2.62841C18.0095 2.64908 18.375 3.07686 18.375 3.56244V6.89727C18.375 7.16286 18.4876 7.41599 18.685 7.59378C19.2365 8.09066 19.6731 8.75253 19.9478 9.50783C20.0825 9.87833 20.4346 10.125 20.8288 10.125H21.1875C21.7044 10.125 22.125 10.5455 22.125 11.0625V12.9374Z" fill="white"/>
<path d="M12.9375 9.18726C12.9375 8.66947 12.5178 8.24976 12 8.24976H8.25C7.73222 8.24976 7.3125 8.66947 7.3125 9.18726C7.3125 9.70504 7.73222 10.1248 8.25 10.1248H12C12.5178 10.1248 12.9375 9.70504 12.9375 9.18726Z" fill="white"/>
</g>
<defs>
<clipPath id="clip0">
<rect width="24" height="24" fill="white"/>
</clipPath>
</defs>
</svg>
