<svg width="22" height="22" viewBox="0 0 22 22" fill="none" xmlns="http://www.w3.org/2000/svg">
<path d="M11 4.72925C8.74793 4.72925 6.9157 6.56148 6.9157 8.81355C6.9157 11.0656 8.74793 12.8979 11 12.8979C13.2521 12.8979 15.0843 11.0656 15.0843 8.81355C15.0843 6.56148 13.2521 4.72925 11 4.72925ZM11 11.1782C9.69616 11.1782 8.63539 10.1174 8.63539 8.81355C8.63539 7.50971 9.69616 6.44894 11 6.44894C12.3038 6.44894 13.3646 7.50971 13.3646 8.81355C13.3646 10.1174 12.3038 11.1782 11 11.1782Z" fill="white"/>
<path d="M11 0C6.14019 0 2.18646 3.95377 2.18646 8.81354V9.05717C2.18646 11.515 3.59558 14.3791 6.3748 17.5698C8.38951 19.8829 10.3761 21.4958 10.4596 21.5634L11 22L11.5404 21.5634C11.6239 21.4958 13.6105 19.883 15.6252 17.5699C18.4044 14.3791 19.8135 11.515 19.8135 9.05721V8.81358C19.8135 3.95377 15.8598 0 11 0ZM18.0938 9.05721C18.0938 13.2108 12.742 18.2388 11 19.7651C9.25748 18.2383 3.90616 13.2105 3.90616 9.05721V8.81358C3.90616 4.90205 7.08846 1.71974 11 1.71974C14.9115 1.71974 18.0938 4.90205 18.0938 8.81358V9.05721Z" fill="white"/>
</svg>
