<svg width="23" height="23" viewBox="0 0 23 23" fill="none" xmlns="http://www.w3.org/2000/svg">
<g clip-path="url(#clip0)">
<path d="M16.5312 -7.62939e-06H15.3333H7.66667H6.46876C5.01497 -7.62939e-06 3.83334 1.18162 3.83334 2.63541V20.3646C3.83334 21.8184 5.01497 23 6.46876 23H16.5312C17.985 23 19.1667 21.8184 19.1667 20.3646V2.63541C19.1667 1.18162 17.985 -7.62939e-06 16.5312 -7.62939e-06ZM17.25 20.125C17.25 20.654 16.8207 21.0833 16.2917 21.0833H6.70834C6.17934 21.0833 5.75001 20.654 5.75001 20.125V2.87499C5.75001 2.34599 6.17934 1.91666 6.70834 1.91666H7.18751C7.71651 1.91666 8.14584 2.34599 8.14584 2.87499C8.14584 3.40399 8.57517 3.83333 9.10417 3.83333H13.8958C14.4248 3.83333 14.8542 3.40399 14.8542 2.87499C14.8542 2.34599 15.2835 1.91666 15.8125 1.91666H16.2917C16.8207 1.91666 17.25 2.34599 17.25 2.87499V20.125Z" fill="white"/>
</g>
<defs>
<clipPath id="clip0">
<rect width="23" height="23" fill="white"/>
</clipPath>
</defs>
</svg>
