<svg width="27" height="27" viewBox="0 0 27 27" fill="none" xmlns="http://www.w3.org/2000/svg">
<path d="M13.5 6.11719C14.0825 6.11719 14.5547 5.64499 14.5547 5.0625C14.5547 4.48001 14.0825 4.00781 13.5 4.00781C12.9175 4.00781 12.4453 4.48001 12.4453 5.0625C12.4453 5.64499 12.9175 6.11719 13.5 6.11719Z" fill="white"/>
<path d="M13.5 22.9922C14.0825 22.9922 14.5547 22.52 14.5547 21.9375C14.5547 21.355 14.0825 20.8828 13.5 20.8828C12.9175 20.8828 12.4453 21.355 12.4453 21.9375C12.4453 22.52 12.9175 22.9922 13.5 22.9922Z" fill="white"/>
<path d="M5.27344 14.5547C5.85593 14.5547 6.32812 14.0825 6.32812 13.5C6.32812 12.9175 5.85593 12.4453 5.27344 12.4453C4.69095 12.4453 4.21875 12.9175 4.21875 13.5C4.21875 14.0825 4.69095 14.5547 5.27344 14.5547Z" fill="white"/>
<path d="M21.7266 14.5547C22.3091 14.5547 22.7812 14.0825 22.7812 13.5C22.7812 12.9175 22.3091 12.4453 21.7266 12.4453C21.1441 12.4453 20.6719 12.9175 20.6719 13.5C20.6719 14.0825 21.1441 14.5547 21.7266 14.5547Z" fill="white"/>
<path d="M7.53381 20.5209C8.1163 20.5209 8.5885 20.0487 8.5885 19.4662C8.5885 18.8837 8.1163 18.4115 7.53381 18.4115C6.95133 18.4115 6.47913 18.8837 6.47913 19.4662C6.47913 20.0487 6.95133 20.5209 7.53381 20.5209Z" fill="white"/>
<path d="M19.4662 8.58851C20.0487 8.58851 20.5209 8.11631 20.5209 7.53382C20.5209 6.95133 20.0487 6.47913 19.4662 6.47913C18.8837 6.47913 18.4115 6.95133 18.4115 7.53382C18.4115 8.11631 18.8837 8.58851 19.4662 8.58851Z" fill="white"/>
<path d="M19.4662 20.5209C20.0487 20.5209 20.5209 20.0487 20.5209 19.4662C20.5209 18.8837 20.0487 18.4115 19.4662 18.4115C18.8837 18.4115 18.4115 18.8837 18.4115 19.4662C18.4115 20.0487 18.8837 20.5209 19.4662 20.5209Z" fill="white"/>
<path d="M7.53381 8.58851C8.1163 8.58851 8.5885 8.11631 8.5885 7.53382C8.5885 6.95133 8.1163 6.47913 7.53381 6.47913C6.95133 6.47913 6.47913 6.95133 6.47913 7.53382C6.47913 8.11631 6.95133 8.58851 7.53381 8.58851Z" fill="white"/>
<path d="M13.5 0C5.92993 0 0 5.92987 0 13.5C0 21.0701 5.92993 27 13.5 27C21.0701 27 27 21.0701 27 13.5C27 5.92987 21.0701 0 13.5 0ZM13.5 24.8906C7.11271 24.8906 2.10938 19.8872 2.10938 13.5C2.10938 7.11276 7.11271 2.10938 13.5 2.10938C19.8873 2.10938 24.8906 7.11276 24.8906 13.5C24.8906 19.8872 19.8873 24.8906 13.5 24.8906Z" fill="white"/>
<path d="M13.5 8.22656C12.9175 8.22656 12.4453 8.69875 12.4453 9.28125V12.6262C12.4453 13.4714 12.7744 14.266 13.3721 14.8636L15.9183 17.4098C16.1242 17.6158 16.3941 17.7188 16.6641 17.7188C16.934 17.7188 17.2039 17.6158 17.4098 17.4098C17.8217 16.998 17.8217 16.3301 17.4098 15.9183L14.8636 13.3721C14.6644 13.1728 14.5547 12.908 14.5547 12.6263V9.28125C14.5547 8.69875 14.0825 8.22656 13.5 8.22656Z" fill="white"/>
</svg>
